<svg width="24.000000" height="28.000000" viewBox="0 0 24 28" fill="none" xmlns="http://www.w3.org/2000/svg" xmlns:xlink="http://www.w3.org/1999/xlink">
	<desc>
			Created with Pixso.
	</desc>
	<defs>
		<linearGradient id="paint_linear_10_64_0" x1="11.547374" y1="0.000000" x2="11.547374" y2="14.459972" gradientUnits="userSpaceOnUse">
			<stop stop-color="#40B4EA"/>
			<stop offset="1.000000" stop-color="#45C4FF"/>
		</linearGradient>
		<linearGradient id="paint_linear_10_65_0" x1="11.550580" y1="13.540039" x2="11.550580" y2="28.000017" gradientUnits="userSpaceOnUse">
			<stop stop-color="#45C4FF"/>
			<stop offset="1.000000" stop-color="#40B4EA"/>
		</linearGradient>
	</defs>
	<path id="Vector" d="M23.07 14.19C23.07 14.4 22.86 14.51 22.59 14.43L0.46 8.03C0.21 7.95 -0.01 7.72 0 7.51L0 0.27C0 0.05 0.21 -0.06 0.47 0.02L22.61 6.37C22.88 6.44 23.09 6.68 23.09 6.89L23.07 14.19Z" fill="url(#paint_linear_10_64_0)" fill-opacity="1.000000" fill-rule="nonzero"/>
	<path id="Vector" d="M23.07 27.73C23.07 27.94 22.86 28.05 22.6 27.97L0.47 21.57C0.21 21.49 0 21.26 0 21.05L0 13.81C0 13.59 0.21 13.48 0.47 13.56L22.62 19.91C22.88 19.98 23.09 20.22 23.09 20.43L23.07 27.73Z" fill="url(#paint_linear_10_65_0)" fill-opacity="1.000000" fill-rule="nonzero"/>
	<path id="Vector" d="M0.01 21.27C0.01 21.48 0.23 21.59 0.49 21.51L22.62 15.11C22.88 15.03 23.09 14.8 23.09 14.59L23.09 7.35C23.09 7.13 22.88 7.02 22.62 7.1L0.47 13.45C0.21 13.52 -0.01 13.76 0 13.97L0.01 21.27Z" fill="#40B4EA" fill-opacity="1.000000" fill-rule="nonzero"/>
</svg>
