<svg width="212" height="104" viewBox="0 0 212 104" fill="none" xmlns="http://www.w3.org/2000/svg">
<path d="M166 11.3999C146 11.3999 132.1 25.0999 132.1 44.6999C132.1 64.1999 146.1 77.8999 166 77.8999C185.9 77.8999 200 64.1999 200 44.5999C200 24.9999 186 11.3999 166 11.3999ZM166 66.4999C153.6 66.4999 144.9 57.4999 144.9 44.5999C144.9 38.3999 147 32.7999 150.8 28.7999C154.6 24.7999 160 22.5999 166 22.5999C172 22.5999 177.4 24.7999 181.2 28.7999C185 32.7999 187.1 38.3999 187.1 44.5999C187.2 57.4999 178.5 66.4999 166 66.4999Z" fill="#E0002A"/>
<path d="M134.5 12.8H93.5999V23.3H107.8H107.9V23.4001V76.4001H120.2V23.4001V23.3H120.3H134.5V12.8Z" fill="#E0002A"/>
<path d="M83.5 42.4999H83.3L83.5 42.3999C88.1 39.7999 90.6 35.3999 90.6 29.9999C90.6 24.5999 88.4 19.6999 84.7 16.8999C79.6 12.8999 72.8 12.8999 69.2 12.8999H53.5V76.4999H74.8C79.2 76.4999 85.7 75.9999 90.9 71.3999C95.6 67.1999 96.3 61.4999 96.3 58.5999C96.3 55.1999 95.5 50.2999 91.7 46.6999C90.3 45.0999 87.8 43.1999 83.5 42.4999ZM65.9 22.8999H69.5C72.3 22.8999 79 23.6999 79 30.7999C79 37.9999 73 38.9999 69.4 38.9999H65.9V22.8999ZM79.6 64.4999C76.7 66.1999 72.9 66.1999 71.1 66.1999H65.8V48.7999H70.3C73 48.7999 76.1 48.7999 78.8 49.9999C82.8 51.7999 83.4 55.2999 83.4 57.1999C83.5 59.0999 83 62.4999 79.6 64.4999Z" fill="#E0002A"/>
<path d="M0.199951 39.5V76.3999H13.5V49.1999H33.2999V76.3H46.5999C46.5999 76.3 46.5999 25.2 46.5999 0.699951H38C16.4 0.699951 0.199951 11 0.199951 39.5ZM33.2999 39.0999C33.2999 39.0999 17.9 39.0999 13.5 39.0999C13.5 23.3999 19.1999 13.7 33.2999 13.7V39.0999Z" fill="#E0002A"/>
<path d="M208.4 90.9L65.7999 103.3C64.1999 103.4 62.7999 102.2 62.5999 100.6L58.8999 57.5C58.7999 55.9 59.9999 54.5 61.5999 54.3L204.2 42C205.8 41.9 207.2 43.1 207.4 44.7L211.1 87.8C211.2 89.4 210 90.8 208.4 90.9Z" fill="url(#paint0_linear_2532_8238)"/>
<path d="M95.2 63.2001C93.3 61.8001 91.4 61.4001 89 61.4001C88.2 61.4001 87.4 61.4001 86.5 61.5001L77.2 62.3001L80 94.3001L86.2 93.8001L85.2 81.9001L89.2 81.6001C92.9 81.3001 95.5 80.0001 97.1 78.1001C99.3 75.4001 99.2 72.0001 99.1 70.7001C98.9 68.4001 98 65.3001 95.2 63.2001ZM91.3 75.0001C90 76.1001 88.5 76.3001 87.3 76.4001L84.8 76.6001L84 67.2001L86.2 67.0001C86.7 67.0001 87.2 66.9001 87.6 66.9001C88.7 66.9001 89.7 67.1001 90.7 67.6001C91.7 68.2001 92.6 69.3001 92.8 71.1001C92.8 72.5001 92.3 74.0001 91.3 75.0001Z" fill="#414042"/>
<path d="M110.6 86.3001L109.8 77.6001L120.9 76.6001L120.4 71.2001L109.3 72.2001L108.7 65.0001L120.2 64.0001L119.8 58.6001L102 60.2001L104.8 92.2001L122.6 90.7001L122.1 85.3001L110.6 86.3001Z" fill="#414042"/>
<path d="M145.9 73.5C145 72.8 143.7 72 141.5 71.8C142.3 71.2 144.9 69.3 144.6 65.2C144.4 62.5 143 60.1 141 58.8C139.2 57.6 137 57.3 135.3 57.3C134.4 57.3 133.6 57.4 133 57.4L125.1 58.1L127.9 90.1L138.7 89.2C141.5 89 144.4 88.2 146.6 85.9C148.6 83.7 148.9 81.1 148.8 79.2C148.6 77.6 148 75.1 145.9 73.5ZM131.8 62.7L133.6 62.5C133.8 62.5 134.1 62.5 134.3 62.5C136.6 62.5 138.5 63.5 138.7 66.2C139.1 70.3 135.2 70.7 134.2 70.8L132.4 71L131.8 62.7ZM140.6 83.1C139.3 84 137.6 84.2 136.4 84.3L133.7 84.5L132.9 75.7L135.2 75.5C135.8 75.4 136.5 75.4 137.1 75.4C137.9 75.4 138.7 75.5 139.5 75.8C141.6 76.5 142.1 78.2 142.2 79.2C142.4 80.5 142.1 82.1 140.6 83.1Z" fill="#414042"/>
<path d="M196.1 68.2C195.3 59.1 188.8 52.8 179.8 52.8C179.2 52.8 178.7 52.8 178.1 52.9C172.8 53.4 168.9 55.4 166.2 58.9C165.1 60.3 163.2 63.2 162.9 67.5L158.5 67.9L157.4 55.5L151.2 56L154 88L160.2 87.5L159 73.2L163.2 72.8C164.1 78.4 167.2 81.6 169 83.1C171.5 85.2 174.8 86.5 179.1 86.5C179.7 86.5 180.4 86.5 181.1 86.4C190.9 85.5 197 77.9 196.1 68.2ZM180.5 80.7C180.2 80.7 179.8 80.7 179.5 80.7C174 80.7 170 76.6 169.5 70.5C168.8 62.8 173.9 58.9 178.6 58.5C178.9 58.5 179.2 58.5 179.5 58.5C184 58.5 189.1 61.5 189.7 68.8C190.2 75.3 186.5 80.2 180.5 80.7Z" fill="#414042"/>
<defs>
<linearGradient id="paint0_linear_2532_8238" x1="132.65" y1="47.5041" x2="156.65" y2="305.503" gradientUnits="userSpaceOnUse">
<stop stop-color="white"/>
<stop offset="0.0950434" stop-color="#F0F0F0"/>
<stop offset="0.2788" stop-color="#C8C8C8"/>
<stop offset="0.5328" stop-color="#878787"/>
<stop offset="0.844" stop-color="#2F2F2F"/>
<stop offset="1"/>
</linearGradient>
</defs>
</svg>
