<?xml version="1.0" encoding="utf-8"?>
<!-- Generator: Adobe Illustrator 17.0.0, SVG Export Plug-In . SVG Version: 6.00 Build 0)  -->
<!DOCTYPE svg PUBLIC "-//W3C//DTD SVG 1.1//EN" "http://www.w3.org/Graphics/SVG/1.1/DTD/svg11.dtd">
<svg version="1.1" id="Слой_1" xmlns="http://www.w3.org/2000/svg" xmlns:xlink="http://www.w3.org/1999/xlink" x="0px" y="0px"
	 width="255px" height="216px" viewBox="0 0 255 216" enable-background="new 0 0 255 216" xml:space="preserve">
<g>
	<path fill="#1F8EC8" d="M9.37,15.885c0-0.834,0.286-1.511,0.86-2.034c0.572-0.52,1.276-0.781,2.112-0.781H78.03v13.45
		c0,0.626-0.21,1.227-0.625,1.799c-0.418,0.574-0.939,0.86-1.565,0.86h-46.92v159.529h46.451c0.625,0,1.198,0.285,1.721,0.86
		c0.52,0.571,0.781,1.173,0.781,1.799v13.293H12.029c-0.836,0-1.54-0.287-2.112-0.859c-0.574-0.575-0.86-1.279-0.86-2.111
		L9.37,15.885z"/>
	<path fill="#1F8EC8" d="M89.525,145.072c1.425,0,2.496-0.103,3.213-0.312c0.711-0.209,1.248-0.626,1.605-1.252
		c0.355-0.626,0.556-1.458,0.602-2.502c0.043-1.042,0.066-2.398,0.066-4.067l-0.134-10.01c0-0.833-0.224-1.537-0.669-2.111
		c-0.447-0.572-1.027-0.963-1.739-1.173l-44.845-16.266c-2.053-0.833-3.792-2.397-5.219-4.692c-1.428-2.292-2.143-4.692-2.143-7.195
		l0.136-23.772c0-7.402,1.65-12.642,4.953-15.719c3.3-3.074,8.118-4.613,14.455-4.613h57.289l0.136,19.862
		c0,1.357-0.581,2.033-1.74,2.033H66.099c-1.429,0-2.499,0.184-3.213,0.548c-0.716,0.366-1.203,0.914-1.472,1.643
		c-0.268,0.73-0.401,1.668-0.401,2.815v4.222v6.1c0,0.836,0.222,1.642,0.67,2.425c0.444,0.781,1.024,1.278,1.74,1.485l46.981,19.863
		c0.982,0.417,1.896,1.148,2.745,2.19c0.848,1.043,1.583,2.243,2.209,3.597c0.624,1.356,1.114,2.79,1.472,4.3
		c0.357,1.513,0.535,2.894,0.535,4.145v20.645c0,7.405-1.359,12.852-4.081,16.344c-2.723,3.494-7.207,5.239-13.454,5.239H42.273
		l-0.134-21.584c0-1.353,0.579-2.033,1.739-2.033L89.525,145.072z"/>
	<path fill="#1F8EC8" d="M133.8,77.976c0-3.649,0.704-7.089,2.112-10.322c1.407-3.231,3.309-6.046,5.708-8.447
		c2.398-2.397,5.213-4.3,8.446-5.708c3.23-1.407,6.67-2.11,10.322-2.11h51.143l-0.157,20.018c0,0.523-0.183,0.965-0.547,1.329
		c-0.366,0.367-0.809,0.548-1.329,0.548l-42.697,0.156c-3.025,0-5.58,1.044-7.664,3.128c-2.086,2.088-3.128,4.641-3.128,7.664v51.3
		c0,3.025,1.042,5.629,3.128,7.819c2.084,2.19,4.639,3.285,7.664,3.285l43.01,0.157c0.522,0,0.964,0.155,1.329,0.469
		c0.365,0.312,0.548,0.73,0.548,1.251v20.331h-51.299c-3.652,0-7.092-0.704-10.322-2.111c-3.233-1.408-6.049-3.309-8.446-5.709
		c-2.399-2.396-4.301-5.212-5.708-8.445c-1.408-3.23-2.112-6.671-2.112-10.323V77.976z"/>
	<path fill="#1F8EC8" d="M245.376,201.689c0,0.832-0.289,1.51-0.861,2.033c-0.573,0.52-1.277,0.781-2.113,0.781h-65.687v-13.45
		c0-0.626,0.21-1.227,0.626-1.799c0.418-0.573,0.938-0.86,1.564-0.86h46.92V28.867h-46.45c-0.626,0-1.197-0.337-1.721-1.017
		c-0.52-0.677-0.782-1.329-0.782-1.955V12.914h65.845c0.831,0,1.535,0.288,2.112,0.86c0.573,0.575,0.857,1.278,0.857,2.112
		L245.376,201.689z"/>
</g>
</svg>
