<svg width="13.000000" height="16.000000" viewBox="0 0 13 16" fill="none" xmlns="http://www.w3.org/2000/svg" xmlns:xlink="http://www.w3.org/1999/xlink">
	<desc>
			Created with Pixso.
	</desc>
	<defs/>
	<path id="z" d="M13 3.94L13 8.33C13 8.45 12.88 8.59 12.73 8.63L7.98 10.01L12.73 11.37C12.88 11.41 13 11.55 13 11.67L12.98 15.84C12.98 15.96 12.86 16.03 12.72 15.98L0.07 12.32C-0.07 12.28 -0.18 12.16 -0.19 12.05L-0.19 7.98C-0.19 7.89 -0.13 7.8 -0.04 7.73C0 7.72 0.03 7.7 0.06 7.69L5.44 6.15L0.06 4.59C-0.08 4.54 -0.2 4.41 -0.2 4.29L-0.2 0.15C-0.2 0.03 -0.08 -0.04 0.07 0.01L12.72 3.64C12.88 3.68 13 3.82 13 3.94Z" fill="#B7BABE" fill-opacity="1.000000" fill-rule="nonzero"/>
</svg>
