<?xml version="1.0" standalone="no"?>
<!DOCTYPE svg PUBLIC "-//W3C//DTD SVG 20010904//EN"
 "http://www.w3.org/TR/2001/REC-SVG-20010904/DTD/svg10.dtd">
<svg version="1.0" xmlns="http://www.w3.org/2000/svg"
 width="776.000000pt" height="776.000000pt" viewBox="0 0 776.000000 776.000000"
 preserveAspectRatio="xMidYMid meet">
<metadata>
Created by potrace 1.14, written by Peter Selinger 2001-2017
</metadata>
<g transform="translate(0.000000,776.000000) scale(0.100000,-0.100000)"
fill="#000000" stroke="none">
<path d="M706 7735 l-26 -28 0 -1023 c0 -577 4 -1033 9 -1046 18 -48 75 -94
133 -108 18 -4 96 -27 173 -50 77 -22 163 -47 190 -55 28 -7 91 -25 140 -40
50 -15 95 -28 100 -29 6 -2 28 -8 50 -14 22 -6 45 -12 50 -13 6 -1 21 -6 35
-11 14 -5 32 -11 40 -13 8 -2 47 -13 85 -25 39 -11 79 -22 90 -24 11 -2 31 -9
45 -14 14 -5 28 -10 32 -11 4 -1 13 -3 20 -6 16 -5 198 -56 218 -61 8 -2 56
-15 105 -30 50 -14 98 -27 108 -29 9 -2 21 -7 27 -10 5 -3 42 -15 82 -26 40
-11 80 -21 88 -24 8 -2 54 -15 101 -29 48 -14 95 -27 105 -29 11 -2 27 -7 36
-11 9 -4 22 -9 30 -10 7 -2 20 -6 28 -9 13 -5 138 -41 180 -51 8 -2 35 -9 60
-16 25 -7 45 -11 45 -10 0 1 14 -4 30 -11 17 -6 90 -28 164 -48 150 -42 150
-38 6 -80 -158 -46 -321 -92 -335 -96 -8 -2 -87 -24 -175 -50 -218 -63 -245
-70 -365 -106 -58 -17 -114 -32 -125 -35 -11 -2 -49 -13 -85 -24 -36 -10 -153
-44 -260 -75 -107 -30 -217 -62 -245 -70 -27 -8 -59 -17 -70 -19 -11 -3 -58
-16 -105 -31 -47 -14 -94 -27 -105 -30 -11 -2 -78 -22 -150 -43 -71 -21 -133
-39 -137 -40 -4 -2 -13 -4 -20 -7 -55 -17 -276 -77 -290 -78 -10 -1 -18 -4
-18 -8 0 -3 -19 -11 -42 -18 -80 -24 -73 78 -75 -1085 -2 -668 1 -1054 7
-1077 11 -39 41 -59 89 -59 15 0 31 -3 35 -7 3 -4 12 -8 19 -9 7 -1 53 -14
102 -28 50 -15 97 -29 106 -31 9 -2 49 -13 89 -25 40 -12 80 -23 89 -25 9 -2
27 -8 41 -13 14 -5 28 -10 32 -11 4 -1 13 -3 20 -5 7 -2 72 -20 143 -41 72
-20 153 -43 180 -51 28 -8 55 -16 60 -18 6 -2 24 -6 40 -10 17 -4 37 -10 45
-14 8 -3 22 -7 30 -8 8 -2 101 -28 205 -59 105 -32 204 -61 220 -65 49 -13
275 -78 346 -100 37 -12 75 -23 85 -25 11 -2 82 -22 159 -45 132 -39 243 -71
310 -90 17 -4 125 -36 240 -69 197 -58 235 -69 260 -74 6 -2 15 -6 21 -9 6 -4
24 -10 40 -12 16 -3 61 -15 99 -27 108 -32 238 -70 255 -74 8 -2 15 -4 15 -5
0 -1 9 -3 20 -5 19 -4 58 -15 140 -40 22 -7 60 -18 85 -24 25 -7 52 -15 60
-18 8 -3 20 -7 26 -8 6 -2 37 -10 68 -19 31 -9 57 -17 58 -16 2 0 26 -8 53
-16 28 -9 79 -24 115 -34 36 -10 99 -28 140 -40 41 -12 82 -23 90 -25 8 -2
101 -29 205 -60 105 -31 199 -59 210 -62 11 -3 58 -17 105 -30 47 -14 99 -29
115 -33 17 -4 53 -15 80 -24 28 -8 50 -15 50 -15 0 1 32 -8 70 -19 39 -12 95
-28 125 -36 78 -21 442 -126 460 -133 8 -3 24 -8 35 -10 11 -2 37 -10 58 -18
20 -8 39 -15 42 -15 3 0 6 0 8 -1 1 0 9 -2 17 -4 8 -1 112 -31 230 -65 118
-35 226 -65 240 -66 35 -5 87 14 96 34 4 9 8 483 10 1053 l4 1036 -22 33 c-42
61 -62 70 -313 141 -38 11 -95 27 -125 35 -30 9 -59 17 -65 18 -5 2 -17 5 -25
8 -26 10 -185 52 -190 51 -3 -1 -13 3 -23 9 -10 5 -57 20 -105 33 -48 13 -118
32 -157 43 -38 11 -128 37 -200 57 -71 20 -137 39 -145 42 -8 3 -19 7 -25 9
-50 12 -177 49 -280 79 -27 9 -54 16 -60 16 -5 1 -21 6 -35 11 -14 5 -32 11
-41 13 -12 2 -501 142 -602 171 -24 7 -17 14 25 24 18 4 105 29 193 55 88 25
167 48 175 50 8 2 15 4 15 5 0 1 7 3 15 5 8 1 49 13 90 25 41 12 80 23 85 25
6 1 30 8 55 15 25 7 50 15 55 16 6 1 105 30 220 64 116 34 217 63 225 65 22 6
87 25 345 100 127 37 237 68 245 70 8 2 78 23 155 46 77 23 163 47 190 54 28
8 66 19 85 25 19 6 46 13 59 16 50 10 131 56 153 87 l23 32 3 1080 c2 594 0
1094 -3 1112 -7 39 -46 88 -86 109 -30 15 -173 59 -222 68 -15 2 -31 7 -37 11
-5 3 -42 15 -82 26 -83 22 -75 20 -188 53 -166 48 -306 88 -375 107 -104 30
-124 35 -200 58 -38 12 -79 24 -90 26 -11 3 -83 23 -160 46 -77 22 -147 42
-155 44 -8 2 -46 13 -85 25 -95 28 -836 240 -855 245 -8 1 -64 17 -125 35 -60
18 -114 33 -120 35 -5 1 -17 4 -25 7 -20 8 -340 98 -395 112 -48 13 -71 20
-80 25 -5 3 -19 7 -30 9 -36 6 -40 7 -50 14 -10 6 -73 21 -77 18 -2 -1 -16 4
-33 10 -16 7 -37 13 -45 15 -22 6 -162 45 -180 51 -8 3 -16 5 -17 5 -2 0 -17
5 -35 10 -51 16 -271 79 -291 84 -9 2 -21 6 -25 9 -5 3 -19 7 -33 9 -13 3 -64
17 -114 32 -49 14 -97 28 -105 30 -80 22 -608 174 -1080 310 -107 31 -204 58
-215 60 -11 3 -47 13 -80 23 -33 11 -89 27 -125 36 -36 10 -83 24 -105 31 -22
7 -53 17 -70 21 -41 10 -45 11 -47 14 -2 1 -10 3 -18 5 -8 1 -33 8 -55 14 -22
6 -43 11 -47 11 -4 0 -27 8 -50 16 -24 9 -64 18 -90 21 -42 5 -50 2 -72 -22z"/>
</g>
</svg>
